<svg version="1.1" xmlns="http://www.w3.org/2000/svg" viewBox="0 0 1385.9895833333321 1349.576822916667" width="1385.9895833333321" height="1349.576822916667" filter="invert(93%) hue-rotate(180deg)">
  <!-- svg-source:excalidraw -->
  
  <defs>
    <style>
      @font-face {
        font-family: "Virgil";
        src: url("https://excalidraw.com/Virgil.woff2");
      }
      @font-face {
        font-family: "Cascadia";
        src: url("https://excalidraw.com/Cascadia.woff2");
      }
    </style>
  </defs>
  <rect x="0" y="0" width="1385.9895833333321" height="1349.576822916667" fill="#ffffff"></rect><g stroke-linecap="round" transform="translate(407.9817708333321 9.999999999999943) rotate(0 484.00390625 664.7884114583335)"><path d="M0.15 0.3 C204.75 3.04, 410.5 1.93, 968.23 -0.15 M-0.07 0.12 C380.25 -1.97, 761.22 -1.43, 967.62 0 M968.28 -0.75 C973.09 470.26, 973.17 940.72, 967.24 1329.89 M967.93 -0.16 C971.54 269.34, 971.66 538.33, 967.64 1329.69 M968.8 1328.95 C725.63 1329.47, 483.13 1329.56, -0.22 1330.08 M967.63 1329.71 C730.89 1326.3, 493.17 1326.45, -0.09 1329.67 M-0.29 1329.19 C-2.09 998.31, -1.74 666.67, 0.28 0.71 M0.13 1329.66 C0.51 1049.5, 0.13 770.08, -0.29 0.2" stroke="#000000" stroke-width="1" fill="none"></path></g><g stroke-linecap="round"><g transform="translate(444.3684895833321 58.95182291666657) rotate(0 24.69370539399506 0.004375608637928963)"><path d="M-0.98 0.87 C7.6 0.92, 41.64 -0.84, 50.36 -0.86 M0.71 0.28 C9.2 0.58, 40.86 0.57, 49.24 0.34" stroke="#000000" stroke-width="1" fill="none"></path></g></g><g stroke-linecap="round"><g transform="translate(450.9960937499991 207.03125000000006) rotate(0 25.76552769901855 0.05675689764320779)"><path d="M0.65 0.79 C8.99 0.85, 41.59 -0.64, 49.77 -0.68 M-0.47 0.16 C8.26 0.48, 43.23 0.87, 52 0.62" stroke="#000000" stroke-width="1" fill="none"></path></g></g><g transform="translate(445.1953124999991 81.8528645833332) rotate(0 345.5 48)"><text x="0" y="20" font-family="Cascadia, Segoe UI Emoji" font-size="20px" fill="#000000" text-anchor="start" style="white-space: pre;" direction="ltr">import ComponentName form "./src/components/ComponentName";</text><text x="0" y="44" font-family="Cascadia, Segoe UI Emoji" font-size="20px" fill="#000000" text-anchor="start" style="white-space: pre;" direction="ltr">import { getCurrentDateTime } from "./src/utils/utils";</text><text x="0" y="68" font-family="Cascadia, Segoe UI Emoji" font-size="20px" fill="#000000" text-anchor="start" style="white-space: pre;" direction="ltr"></text><text x="0" y="92" font-family="Cascadia, Segoe UI Emoji" font-size="20px" fill="#000000" text-anchor="start" style="white-space: pre;" direction="ltr">const date = getCurrentDateTime();</text></g><g transform="translate(443.83463541666424 301.2864583333333) rotate(0 316.5 276)"><text x="0" y="20" font-family="Cascadia, Segoe UI Emoji" font-size="20px" fill="#000000" text-anchor="start" style="white-space: pre;" direction="ltr">&lt;!DOCTYPE html&gt;</text><text x="0" y="44" font-family="Cascadia, Segoe UI Emoji" font-size="20px" fill="#000000" text-anchor="start" style="white-space: pre;" direction="ltr">&lt;html lang="en"&gt;</text><text x="0" y="68" font-family="Cascadia, Segoe UI Emoji" font-size="20px" fill="#000000" text-anchor="start" style="white-space: pre;" direction="ltr">&lt;head&gt;</text><text x="0" y="92" font-family="Cascadia, Segoe UI Emoji" font-size="20px" fill="#000000" text-anchor="start" style="white-space: pre;" direction="ltr">    &lt;meta charset="UTF-8"&gt;</text><text x="0" y="116" font-family="Cascadia, Segoe UI Emoji" font-size="20px" fill="#000000" text-anchor="start" style="white-space: pre;" direction="ltr">    &lt;title&gt;Astro component file&lt;/title&gt;</text><text x="0" y="140" font-family="Cascadia, Segoe UI Emoji" font-size="20px" fill="#000000" text-anchor="start" style="white-space: pre;" direction="ltr">&lt;/head&gt;</text><text x="0" y="164" font-family="Cascadia, Segoe UI Emoji" font-size="20px" fill="#000000" text-anchor="start" style="white-space: pre;" direction="ltr">&lt;body&gt;</text><text x="0" y="188" font-family="Cascadia, Segoe UI Emoji" font-size="20px" fill="#000000" text-anchor="start" style="white-space: pre;" direction="ltr">    &lt;main&gt;</text><text x="0" y="212" font-family="Cascadia, Segoe UI Emoji" font-size="20px" fill="#000000" text-anchor="start" style="white-space: pre;" direction="ltr">        &lt;p&gt;This page has been generated on ${date}&lt;/p&gt;</text><text x="0" y="236" font-family="Cascadia, Segoe UI Emoji" font-size="20px" fill="#000000" text-anchor="start" style="white-space: pre;" direction="ltr">    &lt;/main&gt;</text><text x="0" y="260" font-family="Cascadia, Segoe UI Emoji" font-size="20px" fill="#000000" text-anchor="start" style="white-space: pre;" direction="ltr">&lt;/body&gt;</text><text x="0" y="284" font-family="Cascadia, Segoe UI Emoji" font-size="20px" fill="#000000" text-anchor="start" style="white-space: pre;" direction="ltr">&lt;/html&gt;</text><text x="0" y="308" font-family="Cascadia, Segoe UI Emoji" font-size="20px" fill="#000000" text-anchor="start" style="white-space: pre;" direction="ltr"></text><text x="0" y="332" font-family="Cascadia, Segoe UI Emoji" font-size="20px" fill="#000000" text-anchor="start" style="white-space: pre;" direction="ltr"></text><text x="0" y="356" font-family="Cascadia, Segoe UI Emoji" font-size="20px" fill="#000000" text-anchor="start" style="white-space: pre;" direction="ltr"></text><text x="0" y="380" font-family="Cascadia, Segoe UI Emoji" font-size="20px" fill="#000000" text-anchor="start" style="white-space: pre;" direction="ltr"></text><text x="0" y="404" font-family="Cascadia, Segoe UI Emoji" font-size="20px" fill="#000000" text-anchor="start" style="white-space: pre;" direction="ltr">&lt;style&gt;</text><text x="0" y="428" font-family="Cascadia, Segoe UI Emoji" font-size="20px" fill="#000000" text-anchor="start" style="white-space: pre;" direction="ltr">    main {</text><text x="0" y="452" font-family="Cascadia, Segoe UI Emoji" font-size="20px" fill="#000000" text-anchor="start" style="white-space: pre;" direction="ltr">        max-width: 720px;</text><text x="0" y="476" font-family="Cascadia, Segoe UI Emoji" font-size="20px" fill="#000000" text-anchor="start" style="white-space: pre;" direction="ltr">        margin: auto;</text><text x="0" y="500" font-family="Cascadia, Segoe UI Emoji" font-size="20px" fill="#000000" text-anchor="start" style="white-space: pre;" direction="ltr">    }</text><text x="0" y="524" font-family="Cascadia, Segoe UI Emoji" font-size="20px" fill="#000000" text-anchor="start" style="white-space: pre;" direction="ltr">&lt;/style&gt;</text><text x="0" y="548" font-family="Cascadia, Segoe UI Emoji" font-size="20px" fill="#000000" text-anchor="start" style="white-space: pre;" direction="ltr"></text></g><g transform="translate(376.0481770833312 43.81510416666714) rotate(0 0.03255208333325754 91.06770833333331)" stroke="none"><path fill="#000000" d="M 0,2.13 Q 0,2.13 -1.47,2.15 -2.94,2.18 -4.58,3.01 -6.22,3.85 -6.85,5.25 -7.49,6.64 -7.75,7.71 -8.01,8.77 -8.23,10.27 -8.45,11.78 -8.68,13.80 -8.90,15.82 -9.05,18.45 -9.20,21.08 -9.29,24.23 -9.39,27.38 -9.31,30.87 -9.23,34.36 -8.88,37.88 -8.54,41.39 -8.06,44.47 -7.59,47.55 -7.08,49.96 -6.57,52.37 -6.10,53.91 -5.64,55.46 -5.00,56.93 -4.37,58.40 -3.73,59.63 -3.08,60.86 -2.66,61.87 -2.24,62.88 -1.83,64.21 -1.41,65.53 -1.03,67.01 -0.65,68.49 -0.33,69.95 -0.01,71.42 0.21,72.84 0.44,74.27 0.57,75.58 0.69,76.90 0.83,78.82 0.97,80.74 0.99,82.22 1.02,83.70 0.58,84.81 0.15,85.91 -0.91,86.83 -1.97,87.76 -3.09,88.29 -4.21,88.81 -5.39,89.28 -6.58,89.75 -8.06,90.23 -9.54,90.71 -11.16,91.13 -12.78,91.55 -14.33,91.88 -15.88,92.22 -17.06,92.52 -18.23,92.82 -19.66,93.28 -21.09,93.74 -22.19,93.92 -23.29,94.10 -24.58,93.71 -25.86,93.31 -26.49,92.00 -27.11,90.68 -26.55,89.58 -25.98,88.48 -24.53,87.91 -23.08,87.35 -21.99,87.31 -20.89,87.26 -19.33,87.52 -17.77,87.79 -16.28,88.77 -14.79,89.76 -13.95,91.05 -13.12,92.34 -12.86,93.65 -12.61,94.97 -12.56,96.36 -12.51,97.75 -12.49,99.22 -12.47,100.68 -12.51,102.56 -12.55,104.44 -12.69,105.91 -12.84,107.38 -13.23,109.15 -13.62,110.92 -14.21,112.82 -14.80,114.73 -15.39,116.63 -15.97,118.54 -16.52,120.45 -17.08,122.37 -17.63,124.21 -18.17,126.05 -18.53,127.67 -18.89,129.29 -19.08,130.77 -19.28,132.25 -19.38,133.65 -19.48,135.04 -19.49,136.30 -19.50,137.56 -19.48,138.70 -19.45,139.83 -19.42,140.96 -19.39,142.09 -19.36,143.22 -19.33,144.35 -19.31,145.49 -19.28,146.62 -19.19,147.68 -19.11,148.74 -18.58,150.47 -18.05,152.20 -17.30,154.01 -16.55,155.82 -15.49,157.61 -14.44,159.40 -13.83,160.35 -13.22,161.30 -11.90,162.92 -10.57,164.53 -9.77,165.46 -8.97,166.39 -8.17,167.29 -7.36,168.19 -6.57,168.97 -5.79,169.75 -4.35,170.85 -2.91,171.95 -1.34,172.84 0.21,173.72 1.95,174.36 3.69,174.99 4.80,175.27 5.90,175.55 7.19,175.84 8.47,176.14 9.93,176.44 11.39,176.75 12.91,177.06 14.44,177.37 15.83,177.64 17.22,177.91 18.35,178.13 19.47,178.36 22.90,179.29 26.32,180.23 26.56,180.60 26.81,180.98 26.92,181.41 27.03,181.84 26.99,182.29 26.96,182.74 26.79,183.15 26.61,183.56 26.32,183.90 26.02,184.23 25.63,184.45 25.24,184.68 24.81,184.76 24.37,184.85 23.92,184.79 23.48,184.74 23.08,184.54 22.68,184.35 22.36,184.03 22.04,183.72 21.84,183.32 21.64,182.92 21.57,182.48 21.51,182.03 21.59,181.59 21.67,181.15 21.89,180.76 22.11,180.37 22.44,180.07 22.77,179.77 23.18,179.59 23.59,179.41 24.03,179.37 24.48,179.33 24.91,179.44 25.35,179.54 25.73,179.78 26.11,180.02 26.39,180.36 26.67,180.71 26.83,181.13 26.98,181.55 27.00,182.00 27.02,182.44 26.89,182.87 26.76,183.30 26.50,183.66 26.24,184.03 25.88,184.29 25.52,184.56 25.09,184.69 24.66,184.83 24.22,184.82 23.77,184.81 23.35,184.66 22.93,184.50 22.58,184.23 22.23,183.95 22.23,183.95 22.23,183.95 21.14,183.98 20.04,184.01 18.16,183.56 16.27,183.10 14.91,182.86 13.54,182.63 11.98,182.41 10.42,182.19 8.88,181.97 7.34,181.74 5.93,181.49 4.52,181.23 3.23,180.93 1.94,180.63 0.72,180.24 -0.49,179.85 -1.55,179.36 -2.61,178.88 -3.59,178.32 -4.58,177.77 -6.29,176.54 -8.00,175.32 -8.88,174.54 -9.77,173.77 -10.66,172.87 -11.56,171.98 -12.41,171.05 -13.26,170.12 -14.08,169.18 -14.91,168.24 -15.71,167.30 -16.51,166.36 -17.25,165.36 -18.00,164.36 -18.64,163.35 -19.28,162.34 -19.91,161.29 -20.54,160.25 -21.11,159.15 -21.69,158.05 -22.14,156.97 -22.59,155.89 -22.93,154.85 -23.27,153.80 -23.58,152.68 -23.90,151.55 -24.13,150.29 -24.37,149.03 -24.40,147.82 -24.44,146.61 -24.41,145.47 -24.38,144.33 -24.34,143.19 -24.30,142.05 -24.25,140.89 -24.20,139.73 -24.13,138.55 -24.06,137.37 -23.96,136.00 -23.86,134.64 -23.69,133.14 -23.52,131.64 -23.27,130.02 -23.02,128.40 -22.66,126.69 -22.29,124.98 -21.89,123.17 -21.48,121.36 -21.14,119.39 -20.81,117.43 -20.51,115.45 -20.20,113.47 -19.93,111.69 -19.66,109.92 -19.52,108.46 -19.38,107.00 -19.37,105.72 -19.36,104.44 -19.39,103.36 -19.42,102.28 -19.42,100.46 -19.41,98.65 -19.39,97.38 -19.37,96.11 -19.74,94.92 -20.12,93.73 -21.20,93.16 -22.29,92.59 -21.81,91.63 -21.33,90.68 -21.88,89.48 -22.43,88.28 -20.96,87.96 -19.50,87.64 -18.30,87.36 -17.10,87.07 -15.70,86.71 -14.31,86.35 -12.88,85.87 -11.46,85.39 -10.12,84.86 -8.79,84.33 -6.67,83.74 -4.55,83.15 -4.45,81.99 -4.36,80.83 -4.33,79.05 -4.30,77.26 -4.35,76.13 -4.40,75.00 -4.58,73.73 -4.76,72.45 -5.05,71.08 -5.35,69.70 -5.71,68.30 -6.08,66.91 -6.69,64.75 -7.30,62.60 -7.71,61.14 -8.13,59.68 -8.43,57.96 -8.74,56.23 -9.06,54.61 -9.38,52.99 -9.95,50.51 -10.52,48.03 -11.08,44.88 -11.63,41.73 -12.07,38.11 -12.51,34.50 -12.71,30.93 -12.92,27.36 -12.99,24.19 -13.06,21.02 -13.13,18.33 -13.20,15.64 -13.26,13.42 -13.31,11.20 -13.12,9.32 -12.94,7.44 -12.53,6.04 -12.12,4.64 -11.46,3.33 -10.80,2.03 -9.78,0.95 -8.75,-0.12 -7.36,-0.86 -5.97,-1.61 -4.47,-1.89 -2.97,-2.18 -1.48,-2.15 0,-2.13 0.25,-2.10 0.51,-2.07 0.75,-1.98 0.99,-1.88 1.20,-1.74 1.41,-1.59 1.58,-1.40 1.75,-1.21 1.87,-0.98 1.99,-0.75 2.05,-0.50 2.11,-0.25 2.11,0.00 2.11,0.25 2.05,0.50 1.99,0.75 1.87,0.98 1.75,1.21 1.58,1.40 1.41,1.59 1.20,1.74 0.99,1.88 0.75,1.98 0.51,2.07 0.25,2.10 -0.00,2.13 -0.00,2.13 L 0,2.13 Z"></path></g><g transform="translate(355.6054687499982 266.0546875000005) rotate(0 -0.7552083333334849 165.82356770833334)" stroke="none"><path fill="#000000" d="M -0.78,1.80 Q -0.78,1.80 -2.18,1.86 -3.57,1.92 -4.99,3.33 -6.41,4.75 -6.95,6.05 -7.48,7.35 -7.91,9.04 -8.33,10.72 -8.73,12.87 -9.13,15.02 -9.39,18.02 -9.64,21.03 -9.77,24.85 -9.90,28.68 -9.98,33.51 -10.05,38.34 -10.09,44.10 -10.13,49.85 -10.01,56.26 -9.89,62.66 -9.52,69.13 -9.16,75.60 -8.67,81.25 -8.19,86.91 -7.67,91.34 -7.16,95.77 -6.78,98.64 -6.41,101.51 -6.10,103.21 -5.79,104.92 -5.47,106.06 -5.15,107.20 -4.84,108.28 -4.53,109.35 -4.18,110.66 -3.83,111.97 -3.50,113.79 -3.18,115.60 -2.90,117.95 -2.62,120.30 -2.33,122.94 -2.03,125.59 -1.78,128.20 -1.53,130.81 -1.36,133.30 -1.20,135.78 -1.13,138.04 -1.07,140.30 -0.99,142.15 -0.91,144.00 -0.82,145.54 -0.72,147.09 -0.63,148.41 -0.54,149.74 -0.50,150.87 -0.45,152.00 -0.68,153.21 -0.92,154.42 -1.68,155.61 -2.45,156.80 -3.46,157.72 -4.47,158.65 -5.61,159.53 -6.74,160.42 -8.18,161.36 -9.61,162.30 -11.19,163.14 -12.78,163.99 -14.29,164.66 -15.81,165.34 -16.93,165.89 -18.04,166.45 -19.40,167.26 -20.77,168.06 -21.94,168.40 -23.12,168.74 -24.66,168.19 -26.20,167.65 -26.63,166.46 -27.06,165.27 -26.57,164.22 -26.07,163.17 -24.64,162.45 -23.20,161.73 -22.10,161.67 -21.00,161.60 -19.15,162.20 -17.29,162.79 -16.50,163.54 -15.71,164.29 -15.11,165.25 -14.51,166.21 -14.08,167.38 -13.66,168.54 -13.36,170.06 -13.07,171.57 -13.01,173.19 -12.96,174.81 -12.95,176.41 -12.93,178.01 -12.93,179.62 -12.92,181.22 -13.01,183.73 -13.10,186.24 -13.27,188.21 -13.44,190.18 -13.70,192.72 -13.96,195.26 -14.37,198.25 -14.77,201.25 -15.30,204.63 -15.83,208.01 -16.33,211.53 -16.84,215.05 -17.33,218.57 -17.82,222.10 -18.33,225.43 -18.83,228.77 -19.21,231.78 -19.59,234.79 -19.82,237.58 -20.06,240.38 -20.20,242.99 -20.35,245.60 -20.42,247.97 -20.48,250.34 -20.51,252.45 -20.54,254.55 -20.55,256.63 -20.55,258.71 -20.55,260.78 -20.55,262.84 -20.55,264.91 -20.54,266.97 -20.48,269.02 -20.42,271.06 -20.17,272.91 -19.92,274.75 -19.58,276.55 -19.25,278.35 -18.89,280.13 -18.52,281.91 -18.10,283.65 -17.67,285.40 -17.15,287.14 -16.63,288.89 -16.06,290.64 -15.48,292.40 -14.87,294.18 -14.27,295.95 -13.60,297.54 -12.93,299.14 -12.20,300.68 -11.47,302.23 -10.69,303.93 -9.91,305.63 -9.12,307.28 -8.32,308.93 -7.51,310.41 -6.69,311.88 -5.88,313.07 -5.08,314.25 -4.33,315.19 -3.57,316.12 -2.79,316.95 -2.01,317.79 -1.15,318.61 -0.29,319.43 0.56,320.09 1.42,320.76 3.36,321.66 5.29,322.57 6.52,323.03 7.75,323.50 9.15,323.98 10.54,324.46 12.02,324.96 13.49,325.45 14.85,325.91 16.22,326.38 17.34,326.80 18.46,327.22 21.76,328.82 25.06,330.42 25.18,330.83 25.30,331.24 25.28,331.66 25.27,332.08 25.12,332.48 24.97,332.88 24.70,333.20 24.43,333.53 24.07,333.76 23.71,333.98 23.30,334.08 22.88,334.18 22.46,334.14 22.04,334.10 21.65,333.93 21.27,333.76 20.95,333.47 20.64,333.19 20.44,332.81 20.23,332.44 20.16,332.03 20.08,331.61 20.14,331.19 20.20,330.77 20.39,330.39 20.59,330.02 20.89,329.72 21.19,329.42 21.57,329.24 21.96,329.05 22.38,329.00 22.80,328.95 23.21,329.03 23.63,329.12 23.99,329.33 24.36,329.54 24.64,329.86 24.92,330.18 25.08,330.57 25.25,330.96 25.28,331.38 25.31,331.80 25.20,332.21 25.09,332.62 24.86,332.98 24.63,333.33 24.30,333.60 23.96,333.86 23.56,334.00 23.17,334.14 22.74,334.15 22.32,334.16 21.91,334.03 21.51,333.90 21.17,333.65 20.83,333.40 20.58,333.05 20.34,332.70 20.34,332.70 20.34,332.71 19.28,332.65 18.22,332.59 16.42,331.79 14.62,330.99 13.31,330.53 12.01,330.07 10.50,329.60 8.98,329.14 7.48,328.65 5.97,328.17 4.59,327.64 3.22,327.10 1.96,326.50 0.70,325.89 -0.46,325.14 -1.62,324.40 -2.60,323.51 -3.59,322.62 -4.49,321.62 -5.39,320.62 -6.18,319.58 -6.96,318.55 -7.68,317.43 -8.39,316.31 -9.16,314.97 -9.93,313.62 -10.75,312.06 -11.56,310.49 -12.37,308.81 -13.17,307.13 -13.97,305.43 -14.76,303.72 -15.48,302.09 -16.19,300.45 -16.85,298.75 -17.51,297.05 -18.11,295.25 -18.72,293.45 -19.30,291.63 -19.88,289.82 -20.39,287.98 -20.91,286.14 -21.30,284.32 -21.69,282.49 -21.99,280.67 -22.29,278.85 -22.56,276.97 -22.83,275.09 -23.03,273.12 -23.22,271.14 -23.28,269.06 -23.33,266.97 -23.32,264.90 -23.32,262.84 -23.31,260.77 -23.30,258.70 -23.29,256.61 -23.27,254.52 -23.25,252.40 -23.24,250.28 -23.19,247.87 -23.15,245.47 -23.04,242.81 -22.92,240.16 -22.73,237.30 -22.53,234.45 -22.21,231.40 -21.89,228.34 -21.48,225.02 -21.06,221.70 -20.69,218.17 -20.32,214.63 -19.97,211.08 -19.62,207.53 -19.31,204.20 -19.01,200.88 -18.89,198.00 -18.78,195.12 -18.89,192.65 -19.00,190.18 -19.17,188.21 -19.34,186.24 -19.41,184.79 -19.48,183.34 -19.50,181.48 -19.52,179.62 -19.52,178.03 -19.51,176.44 -19.52,174.93 -19.52,173.42 -19.61,172.02 -19.70,170.61 -20.14,169.26 -20.58,167.91 -21.76,167.72 -22.93,167.53 -22.17,166.27 -21.42,165.00 -22.16,164.19 -22.91,163.38 -21.47,162.76 -20.03,162.15 -18.85,161.64 -17.67,161.13 -16.34,160.54 -15.01,159.95 -13.64,159.16 -12.27,158.38 -10.99,157.47 -9.70,156.56 -8.62,155.75 -7.54,154.93 -6.31,154.04 -5.08,153.14 -4.68,151.45 -4.28,149.76 -4.20,148.44 -4.12,147.12 -4.06,145.59 -3.99,144.06 -3.99,142.24 -3.98,140.41 -4.09,138.22 -4.19,136.03 -4.43,133.60 -4.66,131.17 -5.00,128.61 -5.35,126.04 -5.77,123.45 -6.19,120.86 -6.64,118.60 -7.08,116.34 -7.44,114.59 -7.79,112.84 -8.03,111.47 -8.27,110.09 -8.39,108.95 -8.52,107.81 -8.63,106.57 -8.74,105.32 -8.91,103.59 -9.07,101.86 -9.46,98.98 -9.85,96.09 -10.38,91.62 -10.91,87.15 -11.42,81.45 -11.93,75.76 -12.32,69.24 -12.72,62.72 -12.87,56.28 -13.03,49.84 -13.05,44.08 -13.06,38.32 -13.06,33.47 -13.06,28.61 -13.02,24.71 -12.99,20.82 -12.85,17.66 -12.71,14.50 -12.46,12.16 -12.21,9.83 -11.77,7.75 -11.33,5.67 -10.48,3.85 -9.64,2.03 -8.29,0.63 -6.94,-0.75 -5.33,-1.33 -3.72,-1.92 -2.25,-1.86 -0.78,-1.80 -0.57,-1.78 -0.35,-1.75 -0.15,-1.67 0.05,-1.60 0.23,-1.47 0.41,-1.35 0.55,-1.18 0.70,-1.02 0.80,-0.83 0.90,-0.64 0.95,-0.42 1.00,-0.21 1.00,0.00 1.00,0.21 0.95,0.42 0.90,0.64 0.80,0.83 0.70,1.02 0.55,1.18 0.41,1.35 0.23,1.47 0.05,1.60 -0.15,1.67 -0.35,1.75 -0.57,1.78 -0.78,1.80 -0.78,1.80 L -0.78,1.80 Z"></path></g><g transform="translate(364.79166666666424 649.2903645833337) rotate(0 -4.222005208333485 92.63346354166669)" stroke="none"><path fill="#000000" d="M -4.24,2.15 Q -4.24,2.15 -5.45,2.20 -6.66,2.25 -7.78,3.04 -8.90,3.83 -9.39,5.21 -9.88,6.60 -10.10,7.70 -10.33,8.81 -10.54,10.37 -10.75,11.93 -10.96,14.00 -11.18,16.07 -11.33,18.75 -11.47,21.43 -11.57,24.64 -11.67,27.85 -11.61,31.41 -11.56,34.96 -11.28,38.55 -11.01,42.14 -10.62,45.28 -10.24,48.41 -9.82,50.87 -9.40,53.33 -9.01,54.91 -8.61,56.49 -8.05,58.01 -7.49,59.52 -6.93,60.80 -6.37,62.07 -6.01,63.09 -5.66,64.12 -5.31,65.45 -4.97,66.79 -4.66,68.29 -4.35,69.78 -4.09,71.27 -3.83,72.75 -3.64,74.19 -3.45,75.62 -3.34,76.94 -3.24,78.26 -3.11,80.20 -2.99,82.13 -2.94,83.60 -2.90,85.07 -3.24,86.10 -3.58,87.14 -4.47,88.10 -5.36,89.05 -6.32,89.63 -7.28,90.20 -8.27,90.70 -9.25,91.20 -10.48,91.72 -11.71,92.25 -13.07,92.72 -14.44,93.19 -15.74,93.56 -17.05,93.93 -18.63,94.48 -20.21,95.04 -21.50,95.38 -22.78,95.72 -24.46,95.29 -26.14,94.87 -26.72,93.61 -27.30,92.34 -26.71,91.19 -26.12,90.04 -24.72,89.42 -23.33,88.79 -21.71,88.82 -20.09,88.84 -18.55,89.55 -17.01,90.26 -15.90,91.71 -14.79,93.16 -14.44,94.35 -14.08,95.53 -14.01,97.03 -13.93,98.53 -13.91,99.88 -13.89,101.23 -13.90,102.63 -13.90,104.04 -13.94,105.14 -13.97,106.24 -14.11,107.71 -14.25,109.19 -14.59,110.96 -14.93,112.72 -15.45,114.65 -15.96,116.58 -16.48,118.52 -16.99,120.46 -17.47,122.41 -17.95,124.37 -18.41,126.24 -18.87,128.11 -19.17,129.77 -19.47,131.42 -19.63,132.94 -19.79,134.46 -19.87,135.89 -19.95,137.32 -19.95,138.61 -19.96,139.91 -19.93,141.07 -19.90,142.23 -19.87,143.38 -19.84,144.53 -19.81,145.68 -19.77,146.83 -19.75,147.99 -19.72,149.14 -19.64,150.23 -19.57,151.33 -19.11,153.15 -18.65,154.97 -18.02,156.84 -17.38,158.71 -16.50,160.54 -15.61,162.38 -15.10,163.35 -14.59,164.32 -13.49,165.96 -12.39,167.60 -11.73,168.55 -11.06,169.49 -10.40,170.40 -9.73,171.31 -8.46,172.71 -7.20,174.11 -6.04,175.03 -4.89,175.95 -3.54,176.74 -2.19,177.53 -0.63,178.03 0.93,178.53 1.97,178.80 3.01,179.07 4.20,179.36 5.38,179.64 6.64,179.93 7.89,180.22 9.05,180.49 10.21,180.76 11.81,181.13 13.41,181.50 15.80,182.46 18.19,183.43 18.42,183.86 18.64,184.30 18.71,184.78 18.78,185.26 18.70,185.74 18.61,186.22 18.38,186.65 18.14,187.08 17.78,187.41 17.43,187.74 16.98,187.93 16.53,188.13 16.05,188.18 15.56,188.22 15.09,188.11 14.62,188.00 14.20,187.74 13.79,187.49 13.48,187.11 13.17,186.73 12.99,186.28 12.82,185.82 12.80,185.34 12.78,184.85 12.92,184.38 13.05,183.91 13.33,183.52 13.61,183.12 14.01,182.83 14.40,182.54 14.86,182.39 15.33,182.24 15.81,182.25 16.30,182.25 16.76,182.42 17.22,182.58 17.60,182.88 17.99,183.18 18.25,183.59 18.52,183.99 18.65,184.46 18.77,184.94 18.74,185.42 18.70,185.91 18.52,186.36 18.33,186.81 18.01,187.18 17.69,187.54 17.27,187.79 16.84,188.03 16.37,188.13 15.89,188.23 15.41,188.17 14.92,188.11 14.48,187.90 14.04,187.69 13.69,187.35 13.35,187.01 13.35,187.01 13.35,187.01 12.68,187.18 12.02,187.34 10.47,186.90 8.91,186.46 7.80,186.21 6.69,185.97 5.40,185.72 4.11,185.48 2.82,185.22 1.53,184.96 0.35,184.68 -0.82,184.39 -1.92,184.06 -3.02,183.73 -4.07,183.30 -5.13,182.87 -6.85,181.77 -8.58,180.68 -10.01,179.41 -11.44,178.14 -12.17,177.34 -12.90,176.54 -13.64,175.63 -14.37,174.71 -15.07,173.76 -15.77,172.81 -16.45,171.85 -17.13,170.89 -17.78,169.93 -18.43,168.97 -19.04,167.96 -19.65,166.94 -20.17,165.91 -20.70,164.89 -21.21,163.83 -21.72,162.77 -22.19,161.67 -22.65,160.56 -23.01,159.48 -23.37,158.39 -23.64,157.34 -23.92,156.29 -24.17,155.16 -24.42,154.04 -24.60,152.80 -24.78,151.56 -24.81,150.35 -24.84,149.13 -24.81,147.97 -24.78,146.82 -24.74,145.66 -24.70,144.50 -24.65,143.32 -24.60,142.15 -24.53,140.95 -24.47,139.75 -24.38,138.37 -24.29,137.00 -24.14,135.49 -24.00,133.97 -23.80,132.34 -23.59,130.70 -23.30,128.97 -23.00,127.24 -22.67,125.39 -22.35,123.55 -22.10,121.56 -21.84,119.56 -21.62,117.56 -21.40,115.55 -21.21,113.73 -21.01,111.91 -20.92,110.40 -20.82,108.88 -20.83,107.56 -20.84,106.24 -20.87,105.14 -20.91,104.04 -20.91,102.64 -20.92,101.23 -20.90,99.91 -20.89,98.58 -20.89,97.24 -20.89,95.90 -21.54,95.02 -22.19,94.14 -21.69,92.87 -21.19,91.60 -21.68,90.55 -22.17,89.50 -20.41,88.97 -18.65,88.44 -17.52,88.10 -16.40,87.77 -15.25,87.33 -14.10,86.88 -13.01,86.38 -11.93,85.88 -10.21,85.26 -8.49,84.65 -8.40,83.43 -8.30,82.21 -8.26,80.38 -8.22,78.55 -8.26,77.38 -8.30,76.22 -8.45,74.90 -8.60,73.59 -8.85,72.19 -9.09,70.78 -9.40,69.35 -9.70,67.92 -10.20,65.72 -10.69,63.51 -11.00,62.05 -11.32,60.58 -11.53,58.85 -11.74,57.12 -11.99,55.48 -12.25,53.84 -12.72,51.33 -13.20,48.81 -13.66,45.61 -14.12,42.41 -14.49,38.74 -14.87,35.08 -15.05,31.46 -15.23,27.84 -15.30,24.61 -15.38,21.39 -15.46,18.66 -15.55,15.93 -15.62,13.69 -15.70,11.45 -15.57,9.56 -15.45,7.68 -15.12,6.28 -14.79,4.87 -14.25,3.55 -13.71,2.23 -12.82,1.09 -11.94,-0.03 -10.68,-0.84 -9.43,-1.64 -8.07,-1.95 -6.71,-2.25 -5.48,-2.20 -4.24,-2.15 -3.99,-2.12 -3.73,-2.09 -3.48,-2.00 -3.24,-1.91 -3.03,-1.76 -2.81,-1.61 -2.64,-1.42 -2.47,-1.22 -2.35,-0.99 -2.23,-0.76 -2.16,-0.51 -2.10,-0.26 -2.10,0.00 -2.10,0.26 -2.16,0.51 -2.23,0.76 -2.35,0.99 -2.47,1.22 -2.64,1.42 -2.81,1.61 -3.03,1.76 -3.24,1.91 -3.48,2.00 -3.73,2.09 -3.99,2.12 -4.24,2.15 -4.24,2.15 L -4.24,2.15 Z"></path></g><g transform="translate(349.2187499999977 1099.7721354166672) rotate(0 -7.041015625000227 69.39127604166669)" stroke="none"><path fill="#000000" d="M -6.73,2.17 Q -6.73,2.17 -8.18,2.41 -9.63,2.64 -10.52,3.51 -11.40,4.37 -11.66,5.62 -11.92,6.86 -12.03,7.96 -12.14,9.06 -12.24,10.57 -12.35,12.09 -12.50,14.08 -12.66,16.07 -12.80,18.47 -12.94,20.87 -12.93,23.51 -12.93,26.16 -12.72,28.83 -12.52,31.49 -12.21,33.83 -11.91,36.17 -11.52,37.99 -11.13,39.81 -10.76,40.98 -10.38,42.14 -9.92,43.24 -9.46,44.34 -8.68,46.04 -7.89,47.74 -7.57,48.76 -7.24,49.78 -6.94,50.90 -6.64,52.03 -6.39,53.16 -6.14,54.29 -5.95,55.39 -5.77,56.49 -5.61,58.33 -5.44,60.17 -5.37,61.40 -5.29,62.64 -5.67,64.22 -6.05,65.81 -6.93,66.67 -7.81,67.53 -9.53,68.37 -11.25,69.20 -12.31,69.60 -13.37,70.01 -14.55,70.37 -15.73,70.73 -16.86,71.01 -17.99,71.29 -19.34,71.70 -20.69,72.11 -21.83,72.37 -22.97,72.63 -24.55,72.21 -26.13,71.79 -26.77,70.47 -27.40,69.14 -26.79,67.96 -26.19,66.78 -24.83,66.19 -23.46,65.59 -22.06,65.61 -20.66,65.63 -19.27,66.18 -17.89,66.74 -16.81,67.96 -15.73,69.18 -15.35,70.27 -14.98,71.36 -14.90,72.58 -14.83,73.79 -14.81,75.25 -14.79,76.72 -14.80,78.15 -14.81,79.58 -14.91,80.72 -15.00,81.86 -15.25,83.26 -15.51,84.65 -15.91,86.14 -16.31,87.63 -16.69,89.08 -17.08,90.54 -17.46,92.00 -17.84,93.47 -18.23,94.89 -18.62,96.32 -18.88,97.53 -19.13,98.74 -19.28,99.83 -19.42,100.91 -19.52,102.89 -19.62,104.86 -19.60,106.57 -19.58,108.28 -19.56,110.00 -19.53,111.72 -19.33,113.07 -19.12,114.42 -18.68,115.77 -18.23,117.12 -17.63,118.39 -17.03,119.65 -16.20,121.05 -15.38,122.44 -14.48,123.61 -13.58,124.78 -12.45,126.16 -11.32,127.54 -10.28,128.55 -9.24,129.56 -8.30,130.21 -7.36,130.87 -6.25,131.44 -5.13,132.02 -3.83,132.38 -2.53,132.75 -0.63,133.16 1.27,133.58 2.35,133.80 3.42,134.01 5.24,134.40 7.06,134.79 9.82,135.73 12.58,136.68 12.85,137.12 13.11,137.57 13.22,138.07 13.33,138.58 13.28,139.09 13.22,139.61 13.00,140.08 12.78,140.55 12.43,140.92 12.07,141.30 11.61,141.54 11.15,141.78 10.64,141.86 10.13,141.95 9.62,141.86 9.11,141.78 8.65,141.53 8.20,141.29 7.84,140.91 7.48,140.54 7.27,140.07 7.05,139.60 7.00,139.08 6.94,138.57 7.05,138.06 7.17,137.56 7.43,137.11 7.70,136.67 8.10,136.33 8.49,136.00 8.97,135.81 9.45,135.62 9.97,135.59 10.49,135.56 10.99,135.70 11.49,135.84 11.91,136.13 12.34,136.43 12.65,136.84 12.97,137.25 13.13,137.74 13.30,138.23 13.30,138.75 13.29,139.27 13.13,139.76 12.96,140.25 12.65,140.66 12.33,141.07 11.90,141.36 11.47,141.65 10.98,141.79 10.48,141.93 9.96,141.90 9.44,141.87 8.96,141.68 8.48,141.48 8.09,141.15 7.69,140.81 7.69,140.81 7.69,140.81 6.64,140.91 5.59,141.01 3.93,140.65 2.27,140.29 1.17,140.11 0.06,139.92 -2.06,139.52 -4.20,139.11 -6.09,138.53 -7.98,137.95 -9.51,137.11 -11.04,136.27 -12.32,135.29 -13.60,134.31 -14.91,132.99 -16.22,131.66 -17.41,130.22 -18.60,128.78 -19.73,127.24 -20.87,125.70 -21.78,124.10 -22.69,122.51 -23.44,120.78 -24.20,119.05 -24.68,117.36 -25.16,115.66 -25.37,113.68 -25.58,111.71 -25.55,109.97 -25.51,108.23 -25.44,106.43 -25.38,104.63 -25.32,103.56 -25.26,102.50 -25.15,101.33 -25.04,100.17 -24.86,98.89 -24.69,97.62 -24.44,96.29 -24.19,94.96 -23.90,93.60 -23.61,92.24 -23.36,90.75 -23.11,89.26 -22.87,87.76 -22.63,86.25 -22.42,84.94 -22.20,83.62 -22.06,81.60 -21.92,79.58 -21.94,78.15 -21.95,76.72 -21.93,75.29 -21.91,73.86 -22.03,72.52 -22.15,71.18 -21.62,69.72 -21.10,68.25 -22.20,67.26 -23.29,66.28 -22.26,66.01 -21.22,65.75 -19.41,65.29 -17.59,64.82 -15.68,64.13 -13.77,63.44 -12.49,63.06 -11.21,62.69 -11.17,61.53 -11.12,60.37 -11.14,58.81 -11.15,57.25 -11.44,55.25 -11.73,53.26 -11.96,52.20 -12.19,51.13 -12.57,49.51 -12.95,47.88 -13.24,46.76 -13.52,45.63 -13.72,44.30 -13.93,42.96 -14.11,41.71 -14.30,40.47 -14.68,38.56 -15.06,36.66 -15.48,34.25 -15.90,31.84 -16.25,29.07 -16.60,26.30 -16.80,23.57 -17.00,20.85 -17.11,18.43 -17.23,16.01 -17.33,13.94 -17.43,11.88 -17.41,10.16 -17.38,8.45 -17.19,6.96 -17.00,5.48 -16.63,4.36 -16.26,3.23 -15.64,2.15 -15.02,1.07 -14.04,0.21 -13.06,-0.65 -11.71,-1.19 -10.37,-1.74 -8.88,-1.95 -7.39,-2.17 -7.13,-2.17 -6.86,-2.18 -6.60,-2.13 -6.34,-2.07 -6.11,-1.96 -5.87,-1.84 -5.66,-1.67 -5.46,-1.50 -5.30,-1.29 -5.15,-1.08 -5.05,-0.83 -4.94,-0.59 -4.90,-0.33 -4.86,-0.06 -4.89,0.19 -4.91,0.45 -5.00,0.70 -5.08,0.95 -5.23,1.18 -5.37,1.40 -5.56,1.58 -5.76,1.76 -5.99,1.89 -6.22,2.02 -6.47,2.09 -6.73,2.17 -6.73,2.17 L -6.73,2.17 Z"></path></g><g transform="translate(34.17968749999909 271.2513020833339) rotate(0 120 23)"><text x="0" y="32" font-family="Virgil, Segoe UI Emoji" font-size="36px" fill="#312e81" text-anchor="start" style="white-space: pre;" direction="ltr">HTML Markup</text></g><g transform="translate(14.108072916665833 639.6910329442223) rotate(0 95.50000000000011 23)"><text x="0" y="32" font-family="Virgil, Segoe UI Emoji" font-size="36px" fill="#312e81" text-anchor="start" style="white-space: pre;" direction="ltr">CSS styles</text></g><g transform="translate(19.700520833332575 700.9882812500005) rotate(0 147 75)"><text x="0" y="18" font-family="Virgil, Segoe UI Emoji" font-size="20px" fill="#000000" text-anchor="start" style="white-space: pre;" direction="ltr">Astro will automatically</text><text x="0" y="43" font-family="Virgil, Segoe UI Emoji" font-size="20px" fill="#000000" text-anchor="start" style="white-space: pre;" direction="ltr">scope these styles at </text><text x="0" y="68" font-family="Virgil, Segoe UI Emoji" font-size="20px" fill="#000000" text-anchor="start" style="white-space: pre;" direction="ltr">compile/buildtime, so they leak</text><text x="0" y="93" font-family="Virgil, Segoe UI Emoji" font-size="20px" fill="#000000" text-anchor="start" style="white-space: pre;" direction="ltr">out of the component.</text><text x="0" y="118" font-family="Virgil, Segoe UI Emoji" font-size="20px" fill="#000000" text-anchor="start" style="white-space: pre;" direction="ltr"></text><text x="0" y="143" font-family="Virgil, Segoe UI Emoji" font-size="20px" fill="#000000" text-anchor="start" style="white-space: pre;" direction="ltr">The output will look like:</text></g><g transform="translate(32.337239583332575 880.010416666667) rotate(0 123 48)"><text x="0" y="20" font-family="Cascadia, Segoe UI Emoji" font-size="20px" fill="#000000" text-anchor="start" style="white-space: pre;" direction="ltr">main.astro-63VXI6D7 {</text><text x="0" y="44" font-family="Cascadia, Segoe UI Emoji" font-size="20px" fill="#000000" text-anchor="start" style="white-space: pre;" direction="ltr">    max-width: 720px;</text><text x="0" y="68" font-family="Cascadia, Segoe UI Emoji" font-size="20px" fill="#000000" text-anchor="start" style="white-space: pre;" direction="ltr">    margin: auto;</text><text x="0" y="92" font-family="Cascadia, Segoe UI Emoji" font-size="20px" fill="#000000" text-anchor="start" style="white-space: pre;" direction="ltr">}</text></g><g transform="translate(441.66666666666515 1145.9179687500007) rotate(0 398.5 35.99999999999994)"><text x="0" y="20" font-family="Cascadia, Segoe UI Emoji" font-size="20px" fill="#000000" text-anchor="start" style="white-space: pre;" direction="ltr">&lt;script&gt;</text><text x="0" y="44" font-family="Cascadia, Segoe UI Emoji" font-size="20px" fill="#000000" text-anchor="start" style="white-space: pre;" direction="ltr">    document.querySelector('main').style.backgroundColor = 'purple';</text><text x="0" y="68" font-family="Cascadia, Segoe UI Emoji" font-size="20px" fill="#000000" text-anchor="start" style="white-space: pre;" direction="ltr">&lt;/script&gt;</text></g><g transform="translate(19.17968749999841 1074.641927083334) rotate(0 142.9999999999999 23)"><text x="0" y="32" font-family="Virgil, Segoe UI Emoji" font-size="36px" fill="#000000" text-anchor="start" style="white-space: pre;" direction="ltr">Javascript code</text></g><g transform="translate(23.333333333331893 1128.5846354166672) rotate(0 130.5000000000001 25)"><text x="0" y="18" font-family="Virgil, Segoe UI Emoji" font-size="20px" fill="#000000" text-anchor="start" style="white-space: pre;" direction="ltr">This code will be executed</text><text x="0" y="43" font-family="Virgil, Segoe UI Emoji" font-size="20px" fill="#000000" text-anchor="start" style="white-space: pre;" direction="ltr">on the client side.</text></g><g transform="translate(10 38.49023548668032) rotate(0 147.5 23)"><text x="0" y="32" font-family="Virgil, Segoe UI Emoji" font-size="36px" fill="#312e81" text-anchor="start" style="white-space: pre;" direction="ltr">Component script</text></g><g transform="translate(13.333333333333258 90.41796875000063) rotate(0 159.9999999999999 25)"><text x="0" y="18" font-family="Virgil, Segoe UI Emoji" font-size="20px" fill="#000000" text-anchor="start" style="white-space: pre;" direction="ltr">This will be executed on the</text><text x="0" y="43" font-family="Virgil, Segoe UI Emoji" font-size="20px" fill="#000000" text-anchor="start" style="white-space: pre;" direction="ltr">server side at compile/build time</text></g></svg>